<svg width="608" height="116" viewBox="0 0 608 116" fill="none" xmlns="http://www.w3.org/2000/svg">
<path d="M78.5217 89.2017C59.6061 89.2017 47.4015 76.541 47.4015 57.474C47.4015 38.4143 59.6061 25.7501 78.5217 25.7501C89.3493 25.7501 98.498 30.6318 103.228 38.8674L124.276 26.6667C114.973 11.5653 97.8905 1.95996 78.5217 1.95996C46.334 1.95996 23 26.0558 23 57.474C23 88.896 46.334 112.996 78.5217 112.996C98.0449 112.996 115.127 103.387 124.276 88.2885L103.228 76.0878C98.6524 84.32 89.3493 89.2017 78.5217 89.2017Z" fill="black"/>
<path d="M154.366 48.177V34.5997H131.488V110.863H154.366V76.3928C154.366 61.2909 167.789 57.4767 177.243 59.008V33.0752C167.638 33.0752 157.414 37.9535 154.366 48.177Z" fill="black"/>
<path d="M261.138 73.1162C261.138 50.0845 244.663 32.8477 222.396 32.8477C198.297 32.8477 181.822 50.3936 181.822 73.1162C181.822 95.8427 197.992 113.385 224.072 113.385C238.562 113.385 249.853 108.043 257.327 97.6759L239.022 87.1505C235.97 90.5078 230.632 92.9489 224.381 92.9489C215.991 92.9489 208.973 90.2026 206.073 82.2688H260.221C260.836 79.375 261.138 76.3196 261.138 73.1162ZM205.616 65.1863C207.755 57.4035 213.55 53.1365 222.246 53.1365C229.105 53.1365 235.97 56.3428 238.411 65.1863H205.616Z" fill="black"/>
<path d="M325.587 4.47754V42.1511C320.554 36.3562 313.081 32.8442 302.861 32.8442C282.881 32.8442 266.406 50.3901 266.406 73.1127C266.406 95.8392 282.881 113.382 302.861 113.382C313.081 113.382 320.554 109.873 325.587 104.078V111.246H348.468V4.47754H325.587ZM307.437 91.7231C296.912 91.7231 289.287 84.5551 289.287 73.1127C289.287 61.6742 296.912 54.5062 307.437 54.5062C317.963 54.5062 325.587 61.6742 325.587 73.1127C325.587 84.5551 317.963 91.7231 307.437 91.7231Z" fill="black"/>
<path d="M493.236 1C485.763 1 479.508 7.25492 479.508 14.7282C479.508 22.2054 485.763 28.4569 493.236 28.4569C500.71 28.4569 506.961 22.2054 506.961 14.7282C506.961 7.25492 500.71 1 493.236 1ZM481.798 35.165V111.432H504.678V35.165H481.798Z" fill="black"/>
<path d="M561.614 33.0303C551.545 33.0303 543.921 36.6898 539.805 42.3372V35.1657H516.924V111.432H539.805V69.7941C539.805 58.9631 545.596 54.0814 553.986 54.0814C561.305 54.0814 567.255 58.5031 567.255 67.9609V111.432H590.135V64.6032C590.135 44.0122 577.018 33.0303 561.614 33.0303Z" fill="black"/>
<path d="M361.835 110.958V109.947C361.835 103.26 361.86 96.5699 361.807 89.8829C361.796 88.9839 362.182 88.373 362.657 87.7616C365.063 84.6642 367.503 81.5912 369.913 78.4937C374.566 72.5196 379.205 66.5352 383.848 60.5542C392.586 49.3052 401.327 38.0631 410.055 26.8107C413.188 22.7718 416.282 18.7016 419.414 14.6627C421.96 11.386 424.535 8.13381 427.12 4.88888C427.288 4.67796 427.643 4.49532 427.91 4.49532C441.185 4.47432 454.461 4.47775 467.736 4.47775C467.859 4.47775 467.982 4.49532 468.228 4.5129C468.066 4.74141 467.964 4.92018 467.831 5.07151C456.747 17.7323 445.705 30.4316 434.551 43.0293C428.64 49.7022 423.323 56.8313 417.852 63.845C405.725 79.382 393.657 94.9614 381.551 110.513C381.365 110.751 381.011 110.997 380.729 110.997C374.566 111.025 368.402 111.018 362.235 111.018C362.14 111.018 362.042 110.99 361.835 110.958Z" fill="#59B902"/>
<path d="M361.842 76.9826V4.5332H390.64C390.654 4.8213 390.686 5.10939 390.686 5.39363C390.689 16.7549 390.693 28.1167 390.675 39.478C390.672 39.8921 390.566 40.3912 390.321 40.7037C382.685 50.5092 375.026 60.2899 367.376 70.0851C365.666 72.2732 363.994 74.4893 362.305 76.6946C362.203 76.8283 362.116 76.9685 362.021 77.1057L361.842 76.9826Z" fill="#01A9EB"/>
<path d="M411.529 86.2432C417.612 78.4188 423.664 70.6325 429.788 62.7549L467.255 110.964C466.914 110.992 466.728 111.017 466.545 111.017C454.836 111.021 443.127 111.017 431.418 111.031C430.954 111.031 430.642 110.912 430.347 110.532C424.155 102.536 417.946 94.5491 411.744 86.563C411.681 86.4858 411.631 86.398 411.529 86.2432Z" fill="#01A9EB"/>
</svg>
